<svg width="71" height="93" viewBox="0 0 71 93" fill="none" xmlns="http://www.w3.org/2000/svg">
<line x1="1.25" y1="92" x2="1.25" y2="1" stroke="white" stroke-width="1.5"/>
<path d="M70 92L69 1" stroke="white" stroke-width="1.5"/>
<line x1="2" y1="1.25" x2="69" y2="1.25" stroke="white" stroke-width="1.5"/>
<path d="M69.9814 92.3054L36 65.5" stroke="white" stroke-width="1.5"/>
<line x1="1.54705" y1="91.9225" x2="36.5471" y2="65.4022" stroke="white" stroke-width="1.5"/>
<path d="M23.0988 57C23.0988 55.5493 23.4401 54.7173 24.1228 54.504L28.1548 53.032V20.264L23.0988 18.92C23.0988 17.512 23.5041 16.5307 24.3148 15.976H52.5387V25.768C51.0881 25.768 50.2561 25.4267 50.0428 24.744L47.9308 18.92L33.6588 19.944V35.176H45.8188L47.0988 31.336C47.8241 31.336 48.3148 31.4 48.5708 31.528C48.8694 31.656 49.2108 31.9333 49.5948 32.36V41.64C49.2108 42.0667 48.8694 42.344 48.5708 42.472C48.3148 42.6 47.8241 42.664 47.0988 42.664L45.8188 38.504H33.6588V52.712L40.0588 54.056C40.0588 54.9093 39.9734 55.528 39.8028 55.912C39.6321 56.296 39.3121 56.6587 38.8428 57H23.0988Z" fill="url(#paint0_linear)"/>
<defs>
<linearGradient id="paint0_linear" x1="37.5" y1="11" x2="37.5" y2="65" gradientUnits="userSpaceOnUse">
<stop stop-color="#FEAC5E"/>
<stop offset="0.520833" stop-color="#C779D0"/>
<stop offset="1" stop-color="#4BC0C8"/>
</linearGradient>
</defs>
</svg>
