<svg width="100" viewBox="0 0 179 93" fill="none" xmlns="http://www.w3.org/2000/svg">
<line x1="109.25" y1="92" x2="109.25" y2="1" stroke="black" stroke-width="1.5"/>
<path d="M178 92L177 1" stroke="black" stroke-width="1.5"/>
<line x1="110" y1="1.25" x2="177" y2="1.25" stroke="black" stroke-width="1.5"/>
<path d="M177.981 92.3054L144 65.5" stroke="black" stroke-width="1.5"/>
<line x1="109.547" y1="91.9225" x2="144.547" y2="65.4022" stroke="black" stroke-width="1.5"/>
<path d="M20.8592 49C20.8592 47.912 21.1152 47.288 21.6272 47.128L24.6512 46.024V21.448L20.8592 20.44C20.8592 19.384 21.1632 18.648 21.7712 18.232H42.9392V25.576C41.8512 25.576 41.2272 25.32 41.0672 24.808L39.4832 20.44L28.7792 21.208V32.632H37.8992L38.8592 29.752C39.4032 29.752 39.7712 29.8 39.9632 29.896C40.1872 29.992 40.4432 30.2 40.7312 30.52V37.48C40.4432 37.8 40.1872 38.008 39.9632 38.104C39.7712 38.2 39.4032 38.248 38.8592 38.248L37.8992 35.128H28.7792V45.784L33.5792 46.792C33.5792 47.432 33.5152 47.896 33.3872 48.184C33.2592 48.472 33.0192 48.744 32.6672 49H20.8592ZM45.2061 49C45.2061 47.944 45.4621 47.32 45.9741 47.128L48.6621 46.024V17.128L45.9741 16.024C45.4621 15.832 45.2061 15.208 45.2061 14.152C47.3821 13.896 48.9981 13.768 50.0541 13.768C51.7501 13.768 52.5981 14.632 52.5981 16.36V45.784L56.5341 46.792C56.5341 47.432 56.4701 47.896 56.3421 48.184C56.2141 48.472 55.9741 48.744 55.6221 49H45.2061ZM58.6693 49C58.6693 47.944 58.9253 47.32 59.4373 47.128L62.1253 46.024V30.712L59.4373 29.608C58.9253 29.416 58.6693 28.792 58.6693 27.736C60.8453 27.48 62.4613 27.352 63.5173 27.352C65.2133 27.352 66.0613 28.216 66.0613 29.944V45.784L69.9973 46.792C69.9973 47.432 69.9333 47.896 69.8053 48.184C69.6773 48.472 69.4373 48.744 69.0853 49H58.6693ZM63.5653 22.744C62.7973 22.744 62.1893 22.52 61.7413 22.072C61.2933 21.592 61.0693 20.968 61.0693 20.2C61.0693 19.432 61.3253 18.808 61.8373 18.328C62.3493 17.816 62.9893 17.56 63.7573 17.56C64.5253 17.56 65.1333 17.8 65.5813 18.28C66.0613 18.728 66.3013 19.336 66.3013 20.104C66.3013 20.872 66.0293 21.512 65.4853 22.024C64.9733 22.504 64.3333 22.744 63.5653 22.744ZM71.5956 61.384C71.5956 60.328 71.8516 59.704 72.3636 59.512L75.0516 58.408V30.712L72.3636 29.608C71.8516 29.416 71.5956 28.792 71.5956 27.736C73.7716 27.48 75.3876 27.352 76.4436 27.352C78.1396 27.352 78.9876 28.216 78.9876 29.944V31.576C81.8996 28.408 84.5236 26.824 86.8596 26.824C89.7396 26.824 91.8356 27.832 93.1476 29.848C94.4596 31.864 95.1156 34.488 95.1156 37.72C95.1156 40.92 94.0916 43.704 92.0436 46.072C89.9956 48.408 87.2596 49.576 83.8356 49.576C82.1716 49.576 80.5556 49.352 78.9876 48.904V58.168L82.9236 59.176C82.9236 59.816 82.8596 60.28 82.7316 60.568C82.6036 60.856 82.3636 61.128 82.0116 61.384H71.5956ZM78.9876 45.592C80.2356 46.776 81.8036 47.368 83.6916 47.368C86.0916 47.368 87.8516 46.536 88.9716 44.872C90.0916 43.208 90.6516 40.936 90.6516 38.056C90.6516 32.84 88.8116 30.232 85.1316 30.232C83.2436 30.232 81.1956 31.336 78.9876 33.544V45.592Z" fill="black"/>
<path d="M135.311 25.2222C135.311 26.2782 135.055 26.9022 134.543 27.0942L131.855 28.1982V43.5102L134.543 44.6142C135.055 44.8062 135.311 45.4302 135.311 46.4862C133.135 46.7422 131.519 46.8702 130.463 46.8702C128.767 46.8702 127.919 46.0062 127.919 44.2782V28.4382L123.983 27.4302C123.983 26.7902 124.047 26.3262 124.175 26.0382C124.303 25.7502 124.543 25.4782 124.895 25.2222L135.311 25.2222ZM130.415 51.4782C131.183 51.4782 131.791 51.7022 132.239 52.1502C132.687 52.6302 132.911 53.2542 132.911 54.0222C132.911 54.7902 132.655 55.4142 132.143 55.8942C131.631 56.4062 130.991 56.6622 130.223 56.6622C129.455 56.6622 128.847 56.4222 128.399 55.9422C127.919 55.4942 127.679 54.8862 127.679 54.1182C127.679 53.3502 127.951 52.7102 128.495 52.1982C129.007 51.7182 129.647 51.4782 130.415 51.4782Z" fill="url(#paint0_linear)"/>
<path d="M140.611 47C140.611 45.944 140.867 45.32 141.379 45.128L144.067 44.024V28.712L141.379 27.608C140.867 27.416 140.611 26.792 140.611 25.736C142.787 25.48 144.403 25.352 145.459 25.352C147.155 25.352 148.003 26.216 148.003 27.944V29.576C150.947 26.408 153.667 24.824 156.163 24.824C158.243 24.824 159.795 25.416 160.819 26.6C161.875 27.752 162.403 29.768 162.403 32.648V43.784L166.339 44.792C166.339 45.432 166.275 45.896 166.147 46.184C166.019 46.472 165.779 46.744 165.427 47H155.011C155.011 45.944 155.267 45.32 155.779 45.128L158.467 44.024V32.648C158.467 29.704 157.075 28.232 154.291 28.232C152.307 28.232 150.211 29.336 148.003 31.544V43.784L151.939 44.792C151.939 45.432 151.875 45.896 151.747 46.184C151.619 46.472 151.379 46.744 151.027 47H140.611Z" fill="url(#paint1_linear)"/>
<defs>
<linearGradient id="paint0_linear" x1="130" y1="55.2222" x2="130" y2="23.7407" gradientUnits="userSpaceOnUse">
<stop stop-color="#FEAC5E"/>
<stop offset="0.505208" stop-color="#C779D0"/>
<stop offset="1" stop-color="#4BC0C8"/>
</linearGradient>
<linearGradient id="paint1_linear" x1="153" y1="8" x2="153" y2="58" gradientUnits="userSpaceOnUse">
<stop stop-color="#FEAC5E"/>
<stop offset="0.505208" stop-color="#C779D0"/>
<stop offset="1" stop-color="#4BC0C8"/>
</linearGradient>
</defs>
</svg>